<svg width="512" height="512" viewBox="0 0 512 512" xmlns="http://www.w3.org/2000/svg" fill="none">
  <defs>
    <linearGradient id="bg" x1="52" y1="40" x2="452" y2="472" gradientUnits="userSpaceOnUse">
      <stop offset="0" stop-color="#0B1024" />
      <stop offset="0.52" stop-color="#1E3A8A" />
      <stop offset="1" stop-color="#0EA5E9" />
    </linearGradient>
    <linearGradient id="dragon" x1="160" y1="122" x2="366" y2="364" gradientUnits="userSpaceOnUse">
      <stop offset="0" stop-color="#F8FAFC" />
      <stop offset="0.55" stop-color="#BAE6FD" />
      <stop offset="1" stop-color="#67E8F9" />
    </linearGradient>
    <linearGradient id="fire" x1="282" y1="310" x2="386" y2="392" gradientUnits="userSpaceOnUse">
      <stop offset="0" stop-color="#FACC15" />
      <stop offset="1" stop-color="#F97316" />
    </linearGradient>
  </defs>

  <rect x="28" y="28" width="456" height="456" rx="108" fill="url(#bg)" />
  <circle cx="256" cy="256" r="176" stroke="#A5F3FC" stroke-opacity="0.42" stroke-width="10" />

  <path
    d="M362 148c-28-22-72-34-118-26-55 10-102 48-118 101-13 41-6 93 26 129 27 31 76 51 117 43 24-4 46-15 61-30 11-12 17-28 13-43-5-23-28-35-49-37-18-1-35 5-51 13 15-30 45-55 78-62 23-5 49-2 69 12-9-19-12-38-8-55 5-20 18-35 34-45-20-2-39 2-54 10z"
    fill="url(#dragon)"
  />

  <path
    d="M329 150c5 18 3 34-6 47-9 12-22 21-39 24 14-11 20-23 19-36-1-13-9-24-22-33 20-4 36-2 48 8z"
    fill="#0B1024"
    fill-opacity="0.55"
  />

  <path
    d="M272 210c8-10 20-16 33-16 8 0 15 2 21 6l-16 20-20-10-10 20-19-11 11-9z"
    fill="#0B1024"
    fill-opacity="0.65"
  />

  <circle cx="315" cy="205" r="7" fill="#F8FAFC" />
  <circle cx="317" cy="203" r="2" fill="#0B1024" />

  <path
    d="M330 318c18 2 36 13 45 29 8 13 8 30 1 44-14 26-47 35-74 24 17 0 35-6 45-20 8-11 8-28-2-38-6-6-16-10-24-8l9-31z"
    fill="url(#fire)"
  />
</svg>
